HIERARCHY
ROOT pelvis
{
  OFFSET 0 100 0
  CHANNELS 6 Xposition Yposition Zposition Zrotation Xrotation Yrotation
  JOINT pelvis_right_femur
  {
    OFFSET -10.78128 -3.44521 -0.5502486
    CHANNELS 3 Zrotation Xrotation Yrotation
    JOINT right_femur_tibia
    {
      OFFSET -0.8047443 -44.0398 -0.1307829
      CHANNELS 3 Zrotation Xrotation Yrotation
      JOINT right_tibia_foot
      {
        OFFSET 3.006224 -47.83518 -5
        CHANNELS 3 Zrotation Xrotation Yrotation
        End Site
        {
          OFFSET 0 -5 15
        }
      }
    }
  }
  JOINT pelvis_left_femur
  {
    OFFSET 10.78128 -3.44521 -0.5502486
    CHANNELS 3 Zrotation Xrotation Yrotation
    JOINT left_femur_tibia
    {
      OFFSET 0.8047443 -44.0398 -0.1307829
      CHANNELS 3 Zrotation Xrotation Yrotation
      JOINT left_tibia_foot
      {
        OFFSET -4.370144 -48.10324 -4.275266
        CHANNELS 3 Zrotation Xrotation Yrotation
        End Site
        {
          OFFSET 0 -5 15
        }
      }
    }
  }
  JOINT pelvis_spine1
  {
    OFFSET 0 6.468898 -3.129235
    CHANNELS 3 Zrotation Xrotation Yrotation
    JOINT spine1
    {
      OFFSET 0 23.15396 4.99043
      CHANNELS 3 Zrotation Xrotation Yrotation
      JOINT spine2
      {
        OFFSET 0 20.79997 -5.064912
        CHANNELS 3 Zrotation Xrotation Yrotation
        JOINT neck
        {
          OFFSET 0 14.38658 9.616178
          CHANNELS 3 Zrotation Xrotation Yrotation
          End Site
          {
            OFFSET 0 20 0
          }
        }
      }
      JOINT right_manubrium
      {
        OFFSET -5.722621 16.35077 3.967754
        CHANNELS 3 Zrotation Xrotation Yrotation
        JOINT right_clavicle
        {
          OFFSET -13.16364 1.694482 -4.693211
          CHANNELS 3 Zrotation Xrotation Yrotation
          JOINT right_humerus
          {
            OFFSET -28.5034 -0.3100689 -2.792744
            CHANNELS 3 Zrotation Xrotation Yrotation
            JOINT right_radius
            {
              OFFSET -25.15693 0.02248979 -1.271978
              CHANNELS 3 Zrotation Xrotation Yrotation
              End Site
              {
                OFFSET -15 0 0
              }
            }
          }
        }
      }
      JOINT left_manubrium
      {
        OFFSET 5.722621 16.35077 3.967754
        CHANNELS 3 Zrotation Xrotation Yrotation
        JOINT left_clavicle
        {
          OFFSET 13.16364 1.694482 -4.693211
          CHANNELS 3 Zrotation Xrotation Yrotation
          JOINT left_humerus
          {
            OFFSET 29.39168 -1.063119 -2.237045
            CHANNELS 3 Zrotation Xrotation Yrotation
            JOINT left_radius
            {
              OFFSET 24.59957 -0.9528479 0.9047498
              CHANNELS 3 Zrotation Xrotation Yrotation
              End Site
              {
                OFFSET 15 -0 -0
              }
            }
          }
        }
      }
    }
  }
}
MOTION
Frames: 13
Frame Time: 0.0416666666667
1483.625 104.185 2629.327 3.740179 -2.403258 54.77952 5.400677 -1.143956 4.287554 -0 12.88394 -0 -7.772318 -9.892762 -2.214858 -2.417886 -9.12846 -7.171067 -0 60.7629 -0 -5.865329 -5.094214 14.53855 -1.188775 0.9095529 6.253282 1.497817 10.47633 -5.843525 1.133889 22.8023 5.757489 3.372999 -21.02045 6.368412 4.250627 -16.62187 11.56708 86.58367 33.01393 -17.09075 -0 0 9.35072 -14.66873 10.63847 8.317785 4.604415 -20.27117 -2.012652 -90.05425 23.67061 17.40593 0 0 -17.05159 5.764943 9.111196 6.854796
1488.038 104.8733 2632.479 4.498337 -2.361686 54.27908 4.781635 4.095928 3.442323 -0 10.6643 -0 -7.25888 -11.54578 -1.759003 -1.470448 -15.43739 -5.906211 -0 55.88997 -0 -5.712381 -5.45329 15.61759 -1.484526 1.248915 6.910452 0.8714656 10.39075 -5.036072 1.147599 23.12188 5.603954 3.191863 -20.30488 6.203687 3.702307 -17.72661 11.6583 85.00882 32.90334 -14.37066 -0 0 11.62369 -16.89445 11.18532 9.776806 4.729474 -19.77347 -1.853298 -90.80778 23.89149 19.03591 0 0 -16.42012 4.603265 9.340673 8.222552
1492.382 104.8529 2635.513 4.713424 -2.415887 53.89376 4.551258 8.620517 2.684809 -0 8.750384 -0 -6.606716 -13.42551 -1.339507 0.02484837 -21.01831 -4.455969 -0 46.17079 -0 -5.303758 -6.162703 17.08571 -1.547918 1.470608 7.18768 0.3279332 10.11508 -4.364719 1.143505 23.22172 5.485862 2.907258 -19.76304 6.16753 2.952301 -19.06192 11.61172 83.21348 32.50531 -11.17383 -0 0 14.33322 -19.14311 11.58348 11.43445 4.983364 -19.14908 -1.615119 -91.54675 23.87376 20.68651 0 0 -15.45799 3.674269 9.53707 9.257408
1496.816 104.163 2638.492 4.358986 -2.536892 53.53784 4.596185 12.03445 2.104625 -0 7.56 -0 -5.914351 -15.35279 -0.9027994 1.604829 -24.93468 -3.236598 -0 34.26153 -0 -4.797672 -6.809848 18.60221 -1.377442 1.484704 7.154947 -0.02573165 9.68636 -3.913877 1.125798 23.11703 5.437386 2.623935 -19.46516 6.245836 2.165769 -20.34414 11.39296 81.51514 31.87246 -8.127873 -0 0 17.04362 -20.95023 11.62774 12.92969 5.272011 -18.4361 -1.327152 -92.28374 23.65879 22.22357 0 0 -14.0361 3.070446 9.626655 9.865071
1501.484 102.9861 2641.492 3.71092 -2.645283 53.11609 4.623271 14.68221 1.709428 -0 7.271856 -0 -5.223094 -16.98503 -0.3824362 2.729603 -27.19478 -2.582156 -0 23.30837 -0 -4.404268 -7.11713 19.81131 -1.107065 1.267982 7.0507 -0.2166674 9.203996 -3.623882 1.119708 22.91053 5.445439 2.425295 -19.35875 6.375755 1.428908 -21.3822 11.03682 80.1864 31.01548 -5.709858 -0 0 19.4447 -22.20203 11.25428 14.0743 5.495063 -17.67799 -1.050495 -93.05023 23.39387 23.65 0 0 -12.26559 2.622545 9.528284 10.30887
1506.564 101.5877 2644.601 2.967355 -2.620419 52.55633 4.350012 17.10437 1.561222 -0 8.2744 -0 -4.429431 -17.81039 0.3253903 3.106804 -28.26913 -2.537686 -0 14.78153 -0 -4.189895 -6.976405 20.46575 -0.8836989 0.7658142 7.118188 -0.3220318 8.797859 -3.430563 1.130218 22.60096 5.490392 2.356434 -19.40638 6.477695 0.757195 -22.19751 10.61212 79.32112 29.87682 -4.116816 -0 0 21.58532 -23.08139 10.44857 14.92257 5.574566 -16.91967 -0.835125 -93.85529 23.15142 25.16753 0 0 -10.41618 2.08725 9.002618 10.99687
1512.237 100.3651 2647.919 2.479719 -2.349239 51.8832 3.462354 19.35512 1.839804 -0 11.61969 -0 -3.577069 -16.67636 1.089464 2.343678 -28.12366 -3.19221 -0 11.05829 -0 -4.075448 -6.444383 20.29255 -0.9625745 -0.06034274 7.524968 -0.4118113 8.691259 -3.326821 1.208828 22.21267 5.510737 2.414849 -19.63158 6.519608 0.2352565 -22.69415 10.23818 79.26651 28.53511 -3.790546 -0 0 23.03619 -23.71072 9.414525 15.45989 5.345903 -16.31205 -0.7763478 -94.49137 23.06439 26.71376 0 0 -9.043047 1.342855 7.970581 12.22818
1518.528 99.73565 2651.494 2.631637 -1.794104 51.29059 1.896876 20.8207 2.622869 -0 18.08148 -0 -2.90949 -12.48398 1.465794 0.4439555 -26.65766 -4.324801 -0 13.02627 -0 -3.693631 -6.06275 19.48049 -1.661541 -1.053171 8.166055 -0.5292287 9.077959 -3.372145 1.378536 21.82351 5.462718 2.576405 -19.99715 6.491741 0.1387377 -22.7298 10.10663 80.13305 27.6081 -4.834642 -0 0 23.10783 -24.23074 8.728971 15.66209 4.745592 -16.12553 -0.9515822 -94.59277 23.21842 27.83644 0 0 -8.690083 0.5831349 6.785168 13.74173
1525.177 99.87955 2655.24 3.498704 -1.197722 51.05739 0.2046202 20.67008 3.579041 -0 26.90425 -0 -2.520109 -6.007641 1.032589 -1.912425 -23.95922 -5.480438 -0 17.72933 -0 -2.916193 -6.571274 18.79981 -2.895782 -1.800941 8.590472 -0.6599874 9.789625 -3.576952 1.566486 21.57461 5.383926 2.795777 -20.29961 6.405422 0.5798499 -22.29235 10.25686 81.56455 27.42255 -6.622396 -0 0 21.818 -24.53004 8.62379 15.4638 4.053622 -16.35491 -1.345905 -94.15992 23.53129 28.04919 0 0 -8.946189 0.09108903 5.942998 14.82581
1531.831 100.7257 2658.992 4.706536 -0.9139309 51.36385 -0.9123797 18.68052 4.283592 -0 36.53956 -0 -2.220384 0.4953759 -0.1111858 -3.95636 -20.28218 -6.361698 -0 21.37934 -0 -2.09663 -7.892354 18.57276 -4.060897 -2.07285 8.480445 -0.7527003 10.51543 -3.907577 1.642552 21.50186 5.333394 2.955154 -20.41007 6.276136 1.190529 -21.66935 10.52797 83.24302 27.28414 -8.529208 -0 0 20.11425 -24.32196 8.605556 14.94772 3.574328 -16.72468 -1.885094 -93.52671 23.82467 27.46233 0 0 -9.21265 -0.1641691 5.337929 15.3264
1538.21 102.1246 2662.579 5.874064 -1.092858 52.25336 -1.231513 14.66682 4.594043 -0 46.20857 -0 -2.033927 5.78262 -1.661005 -5.445397 -15.42156 -6.981705 -0 22.69225 -0 -1.466872 -9.560012 18.47336 -4.702189 -1.95767 7.777419 -0.7445282 11.18909 -4.440543 1.53575 21.55308 5.335545 2.950597 -20.39702 6.126798 1.599114 -21.1039 10.79561 85.24003 26.56021 -10.57938 -0 0 18.512 -23.48077 8.244247 14.28575 3.327315 -17.21272 -2.56418 -92.71892 24.10876 26.23732 0 0 -9.757506 -0.3146377 4.69316 15.56987
1544.084 103.8637 2665.833 6.522374 -1.584145 53.58093 -0.8036027 7.982223 4.440644 -0 54.14485 -0 -2.129147 9.20204 -3.206722 -6.274457 -9.271171 -7.421646 -0 21.49508 -0 -0.9760282 -11.39745 18.12402 -4.703957 -1.615812 6.562815 -0.5365193 11.83899 -5.385452 1.189794 21.61554 5.558213 2.881266 -20.3765 6.030408 1.95689 -20.60614 11.09738 87.3467 26.04947 -13.01314 -0 0 16.88882 -22.39611 8.015095 13.66114 3.279088 -18.18541 -3.402659 -91.42684 24.5091 24.20782 0 0 -11.55091 -0.339526 4.32872 15.65244
1549.382 105.5651 2668.675 6.319118 -2.10233 55.01103 0.07572534 -0.3973845 3.959626 -0 56.88619 -0 -2.285522 9.724883 -4.338875 -6.334322 -3.224091 -7.749134 -0 18.42345 -0 -0.7806295 -13.23618 17.42662 -4.139315 -1.141961 5.270526 -0.1302798 12.2639 -6.597755 0.7093527 21.56583 6.09947 2.898555 -20.35935 6.122388 2.418258 -20.14653 11.41689 88.89205 26.54506 -15.49735 -0 0 15.51516 -21.70839 8.60425 13.20261 3.50025 -19.56666 -4.233038 -89.80732 24.91113 21.64821 0 0 -14.57661 -0.2569908 4.580996 15.51718
